<svg version="1.1" id="Layer_1" xmlns="http://www.w3.org/2000/svg" xmlns:xlink="http://www.w3.org/1999/xlink" x="0px" y="0px" width="100%" viewBox="0 0 1024 1024" enable-background="new 0 0 1024 1024" xml:space="preserve">
<path fill="#000000" opacity="1.000000" stroke="none" d="
M324.196106,752.135620 
	C321.928406,751.850464 320.117401,751.559082 318.296234,751.361145 
	C314.719055,750.972290 313.019623,748.817749 312.729340,745.419678 
	C312.587891,743.763855 312.657288,742.088806 312.657288,740.422424 
	C312.655640,643.757202 312.656281,547.092041 312.658112,450.426819 
	C312.658295,440.773743 314.031952,439.256287 323.677063,439.779541 
	C387.039459,443.217224 446.453339,459.206116 499.657166,495.091461 
	C505.049591,498.728577 507.325684,502.835724 507.311920,509.486450 
	C507.109741,607.151184 507.162323,704.816467 507.133789,802.481567 
	C507.132477,806.911316 508.120453,811.942566 503.152679,814.507324 
	C498.114258,817.108521 495.124542,812.667297 491.845215,810.205322 
	C461.810547,787.655762 428.053284,773.071777 391.968384,763.569153 
	C369.890045,757.755066 347.484283,753.630432 324.196106,752.135620 
M469.771027,780.654724 
	C477.773560,785.539001 485.776093,790.423279 494.626740,795.825195 
	C494.626740,792.015015 494.626923,789.225952 494.626709,786.436829 
	C494.619873,697.607178 494.613251,608.777466 494.604858,519.947815 
	C494.604614,517.447998 494.553375,514.947754 494.582855,512.448425 
	C494.623260,509.022461 493.294525,506.576508 490.366089,504.526184 
	C479.128815,496.658356 467.108215,490.242188 454.748810,484.365356 
	C415.927155,465.906006 374.991974,455.797028 332.156677,453.162689 
	C325.351990,452.744202 325.212372,452.995544 325.212341,459.921875 
	C325.212158,550.251526 325.214691,640.581116 325.217468,730.910767 
	C325.217499,732.244019 325.316010,733.583496 325.219543,734.909241 
	C324.985992,738.119507 326.646057,739.299805 329.630707,739.635559 
	C337.900421,740.566101 346.187225,741.437195 354.403381,742.736084 
	C394.651642,749.098511 433.332184,760.311523 469.771027,780.654724 
z" data-index="0"></path>
<path fill="#000000" opacity="1.000000" stroke="none" d="
M518.863647,537.000000 
	C518.859802,527.167053 519.116516,517.824097 518.757629,508.504822 
	C518.533203,502.677826 520.712097,498.775391 525.433838,495.554138 
	C547.590759,480.438568 571.370605,468.659607 596.653931,459.730774 
	C621.905762,450.813080 647.859070,445.109741 674.401489,442.037354 
	C684.307800,440.890686 694.288147,440.283478 704.252197,439.769409 
	C711.280457,439.406799 713.333862,441.547150 713.334961,448.404083 
	C713.350769,546.566711 713.351074,644.729309 713.338135,742.891907 
	C713.337280,749.365112 712.174011,750.887939 705.690979,751.466309 
	C679.278625,753.822632 653.148865,757.786255 627.652344,765.217773 
	C592.837219,775.365417 560.039062,789.711060 531.336670,812.380127 
	C528.790405,814.391174 526.119507,816.352417 522.732666,814.593567 
	C519.296936,812.809143 518.868103,809.467957 518.869934,805.988770 
	C518.888977,769.823608 518.893311,733.658447 518.890564,697.493286 
	C518.886536,644.162170 518.873352,590.831116 518.863647,537.000000 
M531.422302,532.502197 
	C531.422302,620.015137 531.422302,707.528076 531.422302,796.133850 
	C536.322266,792.902161 540.003113,790.365723 543.787720,787.994934 
	C589.805908,759.166687 640.688843,745.470154 694.127991,739.803162 
	C700.751587,739.100708 700.804504,739.291077 700.804382,732.282654 
	C700.802429,641.310181 700.792358,550.337769 700.776794,459.365295 
	C700.775696,453.089203 700.553284,452.805359 694.306885,453.140442 
	C679.835693,453.916779 665.467896,455.617584 651.230469,458.344604 
	C609.396362,466.357391 570.250244,481.098694 534.678223,504.835785 
	C532.328735,506.403595 531.335938,508.207855 531.391174,511.013672 
	C531.525452,517.841248 531.427612,524.673340 531.422302,532.502197 
z" data-index="1"></path>
<path fill="#000000" opacity="1.000000" stroke="none" d="
M725.635071,708.999878 
	C725.619934,646.507141 725.602112,584.514343 725.593262,522.521606 
	C725.591858,512.579102 725.773071,512.172424 735.726624,511.131409 
	C746.868042,509.966156 758.023682,510.726105 769.128174,511.912903 
	C774.062195,512.440247 775.426025,515.667480 775.414307,520.388611 
	C775.299133,566.882812 775.334778,613.377502 775.332153,659.872009 
	C775.329651,703.366943 775.337891,746.861816 775.328125,790.356750 
	C775.326233,798.630615 773.858948,800.161682 765.608765,799.318176 
	C738.358826,796.532227 711.023926,796.166443 683.725281,797.395142 
	C648.584534,798.976929 613.807434,803.786865 579.528076,811.873291 
	C572.632874,813.499817 569.299072,812.644348 567.843140,808.864929 
	C566.339050,804.960510 568.037842,802.027588 574.484192,798.776917 
	C600.509338,785.653381 627.887512,776.485840 656.457520,770.706909 
	C677.857666,766.378296 699.378174,763.232178 721.233276,762.855103 
	C724.845581,762.792786 725.712036,761.294739 725.688538,757.993958 
	C725.573364,741.829956 725.635681,725.664734 725.635071,708.999878 
M762.770569,612.500000 
	C762.769104,588.512085 762.828064,564.523804 762.718079,540.536438 
	C762.694641,535.425537 764.909119,528.917175 761.693115,525.554016 
	C758.242676,521.945496 751.577820,524.289917 746.327209,524.109863 
	C738.321777,523.835449 738.318054,523.997253 738.318359,531.817505 
	C738.321106,609.778259 738.326172,687.738953 738.321045,765.699707 
	C738.320435,774.058472 736.416443,776.047241 728.000000,775.976196 
	C712.147278,775.842285 696.376343,776.882446 680.730103,779.359863 
	C666.914307,781.547607 653.090271,783.798462 639.725403,788.193970 
	C680.451294,783.347107 721.219849,782.149963 762.770447,786.421753 
	C762.770447,728.327454 762.770447,670.913696 762.770569,612.500000 
z" data-index="2"></path>
<path fill="#000000" opacity="1.000000" stroke="none" d="
M300.337219,694.000122 
	C300.343567,715.163025 300.463654,735.827026 300.267151,756.487976 
	C300.223602,761.065552 301.285767,762.707886 306.283508,762.936157 
	C348.642487,764.870239 389.834564,772.492920 429.214783,788.802185 
	C437.389862,792.187927 445.324615,796.004822 453.230164,799.930542 
	C457.091766,801.848083 459.663788,804.604431 457.778839,809.051575 
	C456.044983,813.142273 452.488678,813.416382 448.481781,812.444885 
	C395.033112,799.486511 340.764221,795.187256 285.915436,797.354187 
	C277.270660,797.695740 268.652435,798.692261 260.019318,799.351440 
	C252.197952,799.948792 250.661285,798.496521 250.658707,790.485413 
	C250.648376,758.491211 250.657074,726.497070 250.653427,694.502869 
	C250.646866,637.013306 250.636429,579.523804 250.627777,522.034241 
	C250.626465,513.364014 251.967972,512.299805 260.652740,511.579224 
	C271.301849,510.695679 281.911163,510.104675 292.541779,511.517548 
	C299.228027,512.406189 300.345917,513.670593 300.348480,520.531677 
	C300.363800,561.524231 300.351654,602.516724 300.347351,643.509277 
	C300.345612,660.172852 300.340485,676.836487 300.337219,694.000122 
M263.249146,726.500000 
	C263.249146,746.265076 263.249146,766.030151 263.249146,786.241272 
	C284.210358,784.566833 304.460510,783.283081 324.738068,783.815308 
	C344.999237,784.347046 365.217346,785.836731 385.488007,788.234924 
	C384.900421,786.894958 383.703796,787.183044 382.852844,786.960083 
	C355.359772,779.758545 327.442596,775.788391 298.974457,775.974426 
	C289.155426,776.038574 287.680389,774.481873 287.679840,764.696533 
	C287.675232,687.064026 287.672668,609.431519 287.669281,531.799011 
	C287.669220,530.632874 287.585754,529.460022 287.681366,528.301880 
	C287.926422,525.333496 286.631561,523.999146 283.641479,524.065735 
	C279.145691,524.165833 274.646393,524.098633 270.149841,524.176636 
	C263.273376,524.295959 263.264526,524.322693 263.263824,531.085571 
	C263.257172,595.890381 263.253906,660.695190 263.249146,726.500000 
z" data-index="3"></path>
<path fill="#000000" opacity="1.000000" stroke="none" d="
M208.972687,421.970947 
	C197.980469,437.550354 195.286224,455.289795 193.172318,473.251495 
	C192.200882,481.505707 192.442780,489.813660 191.959641,498.854187 
	C189.388687,496.805542 189.870956,494.569855 189.718109,492.627930 
	C188.530823,477.543945 187.958450,462.429901 184.166306,447.618225 
	C177.223541,420.500671 160.466583,403.702911 133.215286,397.140320 
	C117.584557,393.376160 101.651390,392.497559 85.730225,391.319275 
	C84.105194,391.199036 82.396965,391.600403 80.278336,390.323822 
	C83.534706,388.609802 86.655083,389.031586 89.664536,388.958038 
	C107.015434,388.533905 124.177765,387.074585 140.808105,381.477142 
	C162.378632,374.216949 175.971268,359.477509 182.775146,338.031952 
	C187.760544,322.318207 188.793381,306.054565 189.746201,289.764557 
	C189.926743,286.677826 189.303467,283.466309 190.970963,279.933594 
	C192.897614,282.026031 192.276520,284.233551 192.284317,286.153992 
	C192.346680,301.516998 193.778656,316.725159 197.327347,331.691925 
	C205.137253,364.630707 224.446884,379.301849 256.163391,385.643707 
	C269.095734,388.229584 282.213287,389.119873 295.401398,389.035339 
	C297.119690,389.024323 299.072296,388.477753 301.128815,390.849396 
	C295.401337,391.313385 290.266266,391.831696 285.118408,392.127045 
	C270.290161,392.977753 255.601776,394.683960 241.389130,399.239166 
	C228.370697,403.411621 217.289169,410.427856 208.972687,421.970947 
z" data-index="4"></path>
<path fill="#000000" opacity="1.000000" stroke="none" d="
M854.046753,421.036011 
	C842.819214,436.802155 839.185730,454.649109 837.390930,473.040131 
	C836.744385,479.664886 836.573242,486.335602 836.153870,492.983368 
	C836.054565,494.557892 836.238098,496.251923 834.519775,498.122009 
	C833.313110,494.717682 833.822205,491.761475 833.708313,488.891510 
	C832.993042,470.862946 831.367554,452.956573 824.696350,435.981659 
	C814.774841,410.736176 794.311768,399.632324 769.056580,395.243530 
	C755.918518,392.960449 742.638428,391.996796 729.338989,391.267212 
	C728.412170,391.216400 727.321777,391.510040 726.437378,389.984528 
	C729.270142,388.546448 732.263000,389.014984 735.122009,388.984192 
	C753.028564,388.791351 770.627258,386.823547 787.587097,380.614838 
	C808.842468,372.833618 821.706726,357.505615 827.691528,336.088623 
	C831.971558,320.772095 833.727905,305.084106 833.799377,289.189026 
	C833.811035,286.592529 833.214722,283.878845 834.668396,281.101288 
	C837.014954,282.455017 836.169006,284.674957 836.289429,286.405121 
	C837.409302,302.491486 838.017151,318.570007 842.202026,334.350739 
	C850.208008,364.540436 870.741699,380.127777 900.276733,385.625122 
	C913.234802,388.037018 926.350769,388.983612 939.534912,389.016571 
	C941.248169,389.020844 943.208252,388.477203 945.231873,390.931000 
	C938.640137,391.397156 932.649780,391.787018 926.665100,392.250488 
	C910.695679,393.487213 894.783752,395.210175 879.829041,401.431213 
	C869.705017,405.642761 860.768494,411.648346 854.046753,421.036011 
z" data-index="5"></path>
<path fill="#000000" opacity="1.000000" stroke="none" d="
M505.893158,331.015320 
	C498.182281,299.003143 475.854370,284.692932 445.752747,279.281616 
	C433.450073,277.069977 420.971985,276.852509 408.618103,275.318359 
	C408.005035,275.242218 407.410767,275.014801 406.803741,273.626892 
	C409.795746,273.626892 412.792175,273.733337 415.779022,273.609161 
	C432.114075,272.929932 448.235382,270.931763 463.814423,265.656464 
	C483.607544,258.954224 496.952637,245.765152 503.657776,225.959778 
	C508.707092,211.045212 510.973724,195.626816 511.660889,179.947037 
	C511.897919,174.537552 511.450104,169.057449 514.341736,163.810135 
	C514.341736,166.860382 514.341492,169.910614 514.341736,172.960861 
	C514.342834,187.314606 516.239868,201.434540 519.303162,215.442657 
	C526.058289,246.332825 545.561646,263.795563 576.120239,269.673187 
	C589.036499,272.157501 602.053101,273.774719 615.240356,273.707245 
	C616.875610,273.698883 618.511780,273.878540 621.620544,274.054382 
	C615.791077,276.353180 611.113953,276.112671 606.479614,276.366791 
	C591.667969,277.179047 577.063171,279.198120 562.883057,283.826935 
	C539.970093,291.306458 526.388977,307.320526 520.232483,330.154144 
	C516.539917,343.849396 514.508728,357.796631 514.240784,371.995514 
	C514.169861,375.758331 514.480103,379.599915 512.435242,383.220703 
	C511.702789,365.740875 510.669220,348.335938 505.893158,331.015320 
z" data-index="6"></path>
</svg>