<svg version="1.1" id="Layer_1" xmlns="http://www.w3.org/2000/svg" xmlns:xlink="http://www.w3.org/1999/xlink" x="0px" y="0px" width="100%" viewBox="0 0 1080 1080" enable-background="new 0 0 1080 1080" xml:space="preserve">

<path fill="#FEFEFE" opacity="1.000000" stroke="none" d="
M490.000244,38.389252 
	C585.151550,38.389259 679.802795,38.389259 775.110291,38.389259 
	C736.069946,163.421143 697.138245,288.105164 658.130005,413.034271 
	C656.411072,413.034271 654.942688,413.034241 653.474304,413.034241 
	C578.482544,413.034241 503.490753,413.028564 428.498993,413.057098 
	C425.760681,413.058136 423.789368,413.187469 422.659546,409.555237 
	C384.378113,286.487427 345.935394,163.469788 307.522736,40.442791 
	C307.381287,39.989700 307.336731,39.506359 307.122864,38.389244 
	C368.059937,38.389244 428.780090,38.389244 490.000244,38.389252 
M662.643616,215.026825 
	C669.869690,214.553543 677.095764,214.080276 684.321838,213.607010 
	C684.316772,213.425934 684.311707,213.244873 684.306641,213.063797 
	C676.847046,213.063797 669.387451,213.063797 661.013672,213.076767 
	C644.522583,211.012421 627.770142,210.149063 611.595520,206.630157 
	C579.344177,199.613632 557.425171,180.197632 549.484863,147.568619 
	C545.767151,132.291458 544.472351,116.424545 542.083374,100.824326 
	C541.887634,99.546150 541.720886,98.263527 541.540649,96.982979 
	C540.313416,97.960716 540.160889,98.855743 540.043945,99.755394 
	C538.351868,112.779129 537.313965,125.929153 534.823364,138.798111 
	C531.122864,157.919083 523.643921,175.431137 508.283569,188.400253 
	C492.742065,201.522308 474.020721,207.123779 454.348724,209.901123 
	C442.501434,211.573761 430.550659,212.513382 418.646393,213.782394 
	C420.028534,214.625809 421.526978,214.806366 423.025818,214.983673 
	C437.380402,216.681656 451.887085,217.570419 466.059906,220.235168 
	C502.065826,227.005005 525.589722,247.876144 533.557800,284.193024 
	C537.023926,299.991272 538.729919,316.175781 541.039978,330.936829 
	C541.251892,329.525116 541.656555,326.661255 542.114380,323.805908 
	C544.402649,309.535645 545.721924,295.022797 549.202026,281.048492 
	C557.047241,249.545532 577.347107,229.911865 608.897400,221.853958 
	C626.249756,217.422195 643.885620,215.394913 662.643616,215.026825 
z" data-index="1" style="opacity: 1;"></path>
<path fill="#FCFCFC" opacity="1.000000" stroke="none" d="
M941.636597,757.000244 
	C941.636597,829.152161 941.636597,900.804016 941.636597,972.996887 
	C948.758606,972.996887 955.715088,972.942688 962.670166,973.017456 
	C966.787231,973.061646 970.770752,974.537964 971.804810,978.580322 
	C972.569031,981.567993 972.266235,985.936646 970.504944,988.153687 
	C968.708618,990.414856 964.615234,991.569519 961.411194,991.842529 
	C954.990601,992.389465 948.490601,992.004944 941.632263,992.004944 
	C941.632263,999.686218 941.677185,1006.971252 941.616455,1014.255432 
	C941.576294,1019.077942 939.347717,1022.467468 934.698486,1024.098022 
	C930.685486,1025.505371 927.260681,1024.057983 924.998291,1020.988342 
	C923.550842,1019.024536 922.825745,1016.152832 922.719055,1013.648071 
	C922.421753,1006.665039 922.615723,999.661194 922.615723,992.335693 
	C668.241699,992.335693 414.032684,992.335693 159.341797,992.335693 
	C159.341797,999.950317 159.443970,1007.562866 159.304214,1015.170898 
	C159.217712,1019.879150 156.593063,1022.869934 152.116806,1024.194702 
	C147.832565,1025.462769 144.410736,1023.633179 142.261047,1020.268982 
	C140.937424,1018.197571 140.531128,1015.289429 140.438568,1012.730713 
	C140.197830,1006.074951 140.357635,999.404663 140.357635,992.004944 
	C133.697067,992.004944 127.090317,992.386597 120.560898,991.841675 
	C117.359001,991.574585 113.383705,990.380798 111.448242,988.144165 
	C109.689880,986.112122 109.311142,981.894043 109.961143,979.008362 
	C110.881012,974.924561 114.693909,973.129272 118.831390,973.044128 
	C125.806618,972.900574 132.786942,973.004822 140.357574,973.004822 
	C140.357574,970.818420 140.357559,968.900513 140.357559,966.982605 
	C140.357544,824.323608 140.354477,681.664612 140.383026,539.005615 
	C140.383530,536.526917 140.518616,533.996887 141.021729,531.580566 
	C142.006119,526.852722 145.465851,524.412537 149.958527,524.412781 
	C154.490158,524.413025 157.839096,527.030945 158.885529,531.659119 
	C159.391968,533.899048 159.360397,536.288879 159.360718,538.610840 
	C159.380646,681.269836 159.378601,823.928772 159.378601,966.587769 
	C159.378601,968.577332 159.378601,970.566895 159.378601,972.774170 
	C413.867249,972.774170 668.128174,972.774170 922.615295,972.774170 
	C922.615295,970.397949 922.615295,968.241638 922.615295,966.085388 
	C922.615295,823.593079 922.613220,681.100708 922.633423,538.608398 
	C922.633789,536.286621 922.616089,533.900574 923.112671,531.656494 
	C924.142212,527.004089 927.516663,524.421387 932.037781,524.413757 
	C936.536133,524.406128 939.967590,526.866028 940.972168,531.588989 
	C941.451477,533.842407 941.609558,536.202026 941.610596,538.513672 
	C941.642212,611.175842 941.636597,683.838074 941.636597,757.000244 
z" data-index="2" style="visibility: visible; opacity: 1;"></path>
<path fill="#FAFAFA" opacity="1.000000" stroke="none" d="
M549.414001,543.020264 
	C547.337097,531.134583 552.601562,524.344971 562.038940,518.183289 
	C606.444458,489.190796 654.776550,470.127625 706.436523,459.021362 
	C734.501526,452.987701 762.898560,449.667297 791.575684,448.641449 
	C799.323486,448.364319 801.979675,450.780548 801.980225,458.391144 
	C801.989807,587.023987 801.989197,715.656860 801.977234,844.289673 
	C801.976562,851.415161 799.675659,853.569946 792.436218,854.119751 
	C729.285522,858.916016 668.572571,873.115479 612.329773,902.977478 
	C595.671997,911.821960 580.324036,923.151855 564.496826,933.527344 
	C561.080750,935.766663 558.061890,938.538452 553.695129,936.304199 
	C549.375854,934.094299 549.406311,929.996216 549.406616,925.915894 
	C549.416382,798.449280 549.414307,670.982605 549.414001,543.020264 
M786.808105,787.500061 
	C786.808105,679.743652 786.808105,571.987244 786.808105,462.937195 
	C761.015625,466.227570 735.997620,469.419128 710.665894,472.650726 
	C710.665894,549.377258 710.665894,624.715576 710.665894,700.053833 
	C710.389526,700.120972 710.113220,700.188049 709.836853,700.255188 
	C703.190552,689.022766 696.544250,677.790344 689.634338,666.112366 
	C682.757263,677.721375 676.191223,688.805359 669.625183,699.889343 
	C669.276855,699.743835 668.928589,699.598389 668.580261,699.452881 
	C668.580261,628.045349 668.580261,556.637817 668.580261,485.253418 
	C667.914490,485.186127 667.556458,485.045044 667.273071,485.136200 
	C631.966431,496.485596 598.484558,511.617126 567.860840,532.775208 
	C564.999084,534.752380 564.753479,537.017151 564.754211,539.940674 
	C564.786865,662.766602 564.781860,785.592468 564.781555,908.418396 
	C564.781555,909.997681 564.781616,911.576965 564.781616,914.108765 
	C597.946716,890.495972 633.412170,873.935059 671.092590,861.811584 
	C708.730286,849.702026 747.335938,842.592834 786.808105,839.070862 
	C786.808105,821.798462 786.808105,805.149292 786.808105,787.500061 
z" data-index="3" style="opacity: 1;"></path>
<path fill="#FCFCFC" opacity="1.000000" stroke="none" d="
M279.995178,809.000000 
	C279.995178,692.532104 279.995087,576.564148 279.995300,460.596252 
	C279.995300,450.006134 281.771973,448.340271 292.158936,448.733734 
	C351.452911,450.979858 408.450531,463.437134 462.858459,487.257965 
	C485.139709,497.013123 506.254883,508.880707 526.160217,522.912231 
	C530.677307,526.096375 532.596863,529.800842 532.591675,535.413330 
	C532.472351,665.543945 532.500061,795.674561 532.500366,925.805237 
	C532.500366,926.471741 532.505615,927.138306 532.496643,927.804688 
	C532.450073,931.238525 532.066895,934.501831 528.469055,936.257690 
	C524.822693,938.037231 521.806580,936.857239 518.818848,934.545959 
	C497.427277,917.998413 474.412048,904.147400 449.733154,893.059875 
	C415.908051,877.863159 380.683594,867.153625 344.134888,861.142883 
	C325.438171,858.068115 306.522552,856.317139 287.698181,854.030884 
	C282.579895,853.409302 280.055389,850.869385 280.020233,845.489563 
	C279.941864,833.493530 279.995392,821.496582 279.995178,809.000000 
M359.053162,471.258331 
	C337.968109,468.521362 316.883057,465.784363 295.417908,462.998047 
	C295.417908,589.177917 295.417908,714.051575 295.417908,839.014038 
	C375.167358,846.650330 450.318420,867.274048 517.175781,914.074768 
	C517.175781,911.347595 517.175720,909.521301 517.175720,907.695007 
	C517.175476,798.222046 517.175293,688.749084 517.175049,579.276123 
	C517.175049,565.779480 517.289001,552.280701 517.045776,538.788452 
	C517.011353,536.878418 515.731873,534.256226 514.187317,533.229858 
	C505.611542,527.531555 496.951599,521.914429 487.998779,516.836792 
	C447.992584,494.146698 404.842072,480.230774 359.053162,471.258331 
z" data-index="4" style="opacity: 1;"></path>
<path fill="#FDFDFD" opacity="1.000000" stroke="none" d="
M688.321472,921.197876 
	C666.179443,925.452454 644.469910,929.632263 622.763794,933.830017 
	C618.306091,934.692017 614.813782,933.469482 612.916199,929.147034 
	C611.260742,925.375977 612.799805,921.951294 617.449402,919.397461 
	C644.829407,904.358154 673.970703,893.844849 704.128784,886.035950 
	C741.152161,876.449402 778.726379,870.745117 817.041260,870.461487 
	C817.523560,870.457886 818.004822,870.313293 818.959351,870.157349 
	C818.959351,868.232727 818.959290,866.269897 818.959290,864.307068 
	C818.959412,760.679810 818.959167,657.052490 818.960388,553.425232 
	C818.960510,543.911072 820.738342,541.921143 830.236511,541.969849 
	C844.715515,542.044067 859.201111,542.185791 873.667847,542.727234 
	C881.084595,543.004883 882.993164,545.588562 882.997131,553.258362 
	C883.009155,576.582825 883.001221,599.907349 883.001282,623.231812 
	C883.001587,717.362671 883.002441,811.493591 883.001526,905.624451 
	C883.001465,915.335327 880.090881,917.769409 870.549744,916.668701 
	C830.043823,911.995789 789.437683,911.549927 748.828979,914.765869 
	C728.762207,916.355042 708.777161,918.975586 688.321472,921.197876 
M834.086426,598.500000 
	C834.085266,690.490479 834.084961,782.480957 834.081726,874.471436 
	C834.081421,883.410706 831.734192,886.002197 823.006165,885.797180 
	C786.097107,884.930420 750.038879,890.894653 714.259766,899.140930 
	C710.085632,900.103027 705.996704,901.434631 701.868286,902.594971 
	C701.948975,903.074158 702.029724,903.553284 702.110413,904.032471 
	C757.145325,897.000305 812.271851,895.352234 867.564331,900.835327 
	C867.564331,786.263428 867.564331,672.032715 867.564331,557.148560 
	C856.351562,557.148560 845.427307,557.148560 834.086426,557.148560 
	C834.086426,570.556763 834.086426,584.028381 834.086426,598.500000 
z" data-index="5" style="opacity: 1;"></path>
<path fill="#FDFDFD" opacity="1.000000" stroke="none" d="
M404.930664,894.034485 
	C424.532074,902.327881 443.791504,910.432922 462.924866,918.825378 
	C468.719116,921.366943 470.434998,925.094543 468.821503,929.279907 
	C467.280304,933.277710 463.247925,934.716675 457.394226,933.389038 
	C393.318085,918.856567 328.505585,911.150940 262.737701,913.122620 
	C245.446762,913.640991 228.181732,915.315674 210.931274,916.772949 
	C201.954895,917.531250 198.998657,915.202698 198.998520,906.132568 
	C198.996826,788.509949 198.996796,670.887390 198.998718,553.264771 
	C198.998856,545.195435 200.586105,542.968750 208.703857,542.688354 
	C224.337189,542.148315 239.990799,542.091370 255.636276,542.072937 
	C260.125305,542.067688 262.519714,545.023315 262.947540,549.404602 
	C263.141022,551.385925 263.010315,553.399780 263.010376,555.398865 
	C263.012482,658.693481 263.012787,761.988098 263.013306,865.282715 
	C263.013306,866.916504 263.013306,868.550293 263.013306,870.284058 
	C311.755768,870.528381 358.592621,879.603943 404.930664,894.034485 
M214.111969,772.500000 
	C214.111969,815.262329 214.111969,858.024597 214.111969,900.895996 
	C270.746277,895.151917 326.703400,897.238525 382.646851,903.702515 
	C381.503723,902.744934 380.305389,902.330383 379.082275,902.010620 
	C339.969574,891.784912 300.369781,885.182495 259.776398,885.807434 
	C249.677505,885.962891 247.884827,884.030640 247.884674,873.896484 
	C247.883133,770.272888 247.882767,666.649231 247.882065,563.025635 
	C247.882050,561.054688 247.882050,559.083740 247.882050,557.303589 
	C236.408112,557.303589 225.362701,557.303589 214.111969,557.303589 
	C214.111969,629.241516 214.111969,700.370789 214.111969,772.500000 
z" data-index="6" style="visibility: visible; opacity: 1;"></path>
<path fill="#FDFDFD" opacity="1.000000" stroke="none" d="
M149.088730,474.922516 
	C148.485809,456.737579 146.473923,438.741821 141.833206,421.102051 
	C133.206757,388.312134 112.022156,368.345032 79.158531,361.262817 
	C65.065788,358.225739 50.574192,357.037445 36.261326,355.026886 
	C34.883072,354.833282 33.487137,354.765533 32.005974,353.475006 
	C33.292282,353.311798 34.582352,353.173676 35.864338,352.981567 
	C51.632736,350.619141 67.679161,349.395844 83.108910,345.639954 
	C114.476532,338.004425 134.386215,317.683441 141.851059,286.273285 
	C145.258926,271.933777 146.617264,257.106415 148.876709,242.495956 
	C149.100082,241.051514 149.124008,239.576233 149.240509,238.115265 
	C149.647339,238.056885 150.054184,237.998489 150.461014,237.940094 
	C150.662079,239.151672 150.878479,240.360931 151.061859,241.575180 
	C153.269516,256.193817 154.564362,271.021301 157.858566,285.390533 
	C165.569489,319.025452 187.140198,339.463104 220.667694,346.763000 
	C233.949951,349.654846 247.596619,350.872467 261.076904,352.855682 
	C262.591400,353.078522 264.102783,353.322968 265.545288,354.719299 
	C257.788483,355.480133 249.993301,355.969269 242.282990,357.058960 
	C226.777344,359.250366 211.502502,362.427368 197.354080,369.567444 
	C174.663193,381.018524 162.362991,400.469116 157.293335,424.399780 
	C153.860260,440.605133 152.681137,457.288025 150.207397,474.234619 
	C149.718430,475.078857 149.441055,475.149048 149.088730,474.922516 
z" data-index="7" style="visibility: visible;"></path>
<path fill="#FDFDFD" opacity="1.000000" stroke="none" d="
M823.510742,355.387054 
	C820.058716,355.098145 817.059570,354.863342 814.060486,354.628540 
	C814.063110,354.210449 814.065735,353.792358 814.068420,353.374268 
	C819.387695,352.920105 824.711426,352.512177 830.025513,352.003357 
	C847.802063,350.301270 865.293457,347.277710 881.692444,339.821777 
	C905.905151,328.813324 919.053467,308.887482 924.691345,283.865723 
	C928.216980,268.218231 929.926025,252.161423 932.502075,235.962311 
	C932.698303,237.316742 932.891235,238.697006 933.099121,240.075043 
	C935.477051,255.839737 936.671082,271.897003 940.477112,287.309174 
	C949.098206,322.219604 972.941284,341.463531 1007.601074,347.911957 
	C1019.350464,350.097870 1031.295166,351.232635 1043.148682,352.861908 
	C1044.662598,353.070007 1046.164551,353.364288 1047.570557,354.538666 
	C1037.671509,355.701416 1027.729980,356.587097 1017.883606,358.094635 
	C1004.546692,360.136627 991.507690,363.410156 979.381836,369.604706 
	C956.788452,381.146637 944.729675,400.655304 939.320374,424.488892 
	C936.313660,437.736511 935.125610,451.396332 933.097717,464.867371 
	C932.817444,466.729218 932.420349,468.573517 931.965942,471.027008 
	C929.906189,456.644196 928.409180,442.910797 925.872009,429.372284 
	C923.191772,415.070526 918.108948,401.549011 909.158752,389.789642 
	C897.055298,373.887299 880.285767,365.452942 861.364258,361.266571 
	C849.069641,358.546387 836.442017,357.330841 823.510742,355.387054 
z" data-index="8" style="visibility: visible;"></path>
<path fill="#7A7A7A" opacity="1.000000" stroke="none" d="
M148.970062,475.383087 
	C149.441055,475.149048 149.718430,475.078857 150.162094,474.675323 
	C150.403320,480.963867 150.403320,487.289001 150.403320,493.614105 
	C149.886017,493.609619 149.368698,493.605133 148.851395,493.600647 
	C148.851395,487.681641 148.851395,481.762665 148.970062,475.383087 
z" data-index="9" style="visibility: visible;"></path>

<path fill="#9F9F9F" opacity="1.000000" stroke="none" d="
M662.183716,214.870453 
	C661.880371,214.345856 662.036865,213.977646 662.060608,213.336609 
	C669.387451,213.063797 676.847046,213.063797 684.306641,213.063797 
	C684.311707,213.244873 684.316772,213.425934 684.321838,213.607010 
	C677.095764,214.080276 669.869690,214.553543 662.183716,214.870453 
z" data-index="11" style="opacity: 1;"></path>

<path fill="#000000" opacity="1.000000" stroke="none" d="
M359.469727,471.359497 
	C404.842072,480.230774 447.992584,494.146698 487.998779,516.836792 
	C496.951599,521.914429 505.611542,527.531555 514.187317,533.229858 
	C515.731873,534.256226 517.011353,536.878418 517.045776,538.788452 
	C517.289001,552.280701 517.175049,565.779480 517.175049,579.276123 
	C517.175293,688.749084 517.175476,798.222046 517.175720,907.695007 
	C517.175720,909.521301 517.175781,911.347595 517.175781,914.074768 
	C450.318420,867.274048 375.167358,846.650330 295.417908,839.014038 
	C295.417908,714.051575 295.417908,589.177917 295.417908,462.998047 
	C316.883057,465.784363 337.968109,468.521362 359.469727,471.359497 
z" data-index="13" style="opacity: 1; stroke-width: 2px; stroke: rgb(13, 153, 255); visibility: hidden;"></path>

<path fill="#030303" opacity="1.000000" stroke="none" d="
M214.111969,772.000000 
	C214.111969,700.370789 214.111969,629.241516 214.111969,557.303589 
	C225.362701,557.303589 236.408112,557.303589 247.882050,557.303589 
	C247.882050,559.083740 247.882050,561.054688 247.882065,563.025635 
	C247.882767,666.649231 247.883133,770.272888 247.884674,873.896484 
	C247.884827,884.030640 249.677505,885.962891 259.776398,885.807434 
	C300.369781,885.182495 339.969574,891.784912 379.082275,902.010620 
	C380.305389,902.330383 381.503723,902.744934 382.646851,903.702515 
	C326.703400,897.238525 270.746277,895.151917 214.111969,900.895996 
	C214.111969,858.024597 214.111969,815.262329 214.111969,772.000000 
z" data-index="15" style="opacity: 1; stroke-width: 2px; stroke: rgb(13, 153, 255); visibility: hidden;"></path>
</svg>