<svg version="1.1" id="Layer_1" xmlns="http://www.w3.org/2000/svg" xmlns:xlink="http://www.w3.org/1999/xlink" x="0px" y="0px" width="100%" viewBox="0 0 1080 1080" enable-background="new 0 0 1080 1080" xml:space="preserve">

<path fill="#FDFDFD" opacity="1.000000" stroke="none" d="
M329.996582,622.000000 
	C329.996582,572.174133 329.994629,522.848267 329.998596,473.522430 
	C329.999237,465.744080 332.092896,464.004059 339.874847,464.322876 
	C376.672699,465.830566 412.545105,472.262695 447.506348,483.904388 
	C476.378845,493.518646 503.482819,506.599335 528.503784,523.991394 
	C532.629883,526.859436 534.176086,530.164978 534.169739,535.218933 
	C534.037842,639.869568 534.070618,744.520447 534.068420,849.171265 
	C534.068420,850.504028 534.143005,851.847839 534.004089,853.167664 
	C533.444641,858.485657 528.740479,860.882996 524.254822,857.978027 
	C521.189392,855.992798 518.421570,853.554199 515.455811,851.407776 
	C480.415070,826.047058 441.128235,810.216248 399.125824,801.338745 
	C378.512512,796.981995 357.397766,794.962891 336.478912,792.113953 
	C331.927765,791.494141 330.000214,789.308289 329.998291,784.975037 
	C329.993469,774.143372 329.996582,763.311646 329.996582,752.479980 
	C329.996582,709.153320 329.996582,665.826660 329.996582,622.000000 
M521.888916,786.500000 
	C521.888428,756.504944 521.887634,726.509827 521.887512,696.514771 
	C521.887268,644.023315 521.854492,591.531738 521.964050,539.040527 
	C521.971130,535.658569 521.048889,533.606567 518.085083,531.878418 
	C511.200134,527.863953 504.700836,523.170898 497.730743,519.322510 
	C458.397766,497.605713 416.241425,484.608215 371.707214,479.226532 
	C362.042908,478.058655 352.311005,477.450043 342.400330,476.565094 
	C342.400330,578.246643 342.400330,679.007019 342.400330,780.072998 
	C406.788605,786.093018 467.633179,802.400146 521.889343,840.751404 
	C521.889343,822.338440 521.889343,804.919189 521.888916,786.500000 
z" data-index="1" style="visibility: visible; opacity: 1;"></path>
<path fill="#FDFDFD" opacity="1.000000" stroke="none" d="
M752.003357,767.999695 
	C752.003174,773.832642 752.061157,779.166382 751.986450,784.498352 
	C751.911926,789.814148 750.087952,791.709900 744.917908,792.059631 
	C701.423401,795.002197 659.419861,804.403931 619.279175,821.532776 
	C598.104431,830.568420 578.223694,841.912109 559.994934,856.105957 
	C557.805603,857.810669 554.139221,859.034424 551.576050,858.494385 
	C548.163940,857.775391 547.864746,854.026001 547.866333,850.644165 
	C547.914001,744.984436 547.931824,639.324768 547.817688,533.665161 
	C547.812622,528.973022 549.996338,526.341675 553.442932,523.920410 
	C577.133728,507.277374 602.862122,494.659515 630.143311,485.157318 
	C666.867249,472.366180 704.754028,465.776398 743.566528,464.255585 
	C749.755920,464.013062 751.993896,466.254761 751.995850,473.018982 
	C752.009888,521.515808 752.003357,570.012573 752.003357,618.509399 
	C752.003357,668.172852 752.003357,717.836304 752.003357,767.999695 
M609.007996,812.520142 
	C650.458618,793.621033 694.293701,784.204102 739.437012,780.116821 
	C739.437012,678.867126 739.437012,577.996277 739.437012,476.521606 
	C730.133911,477.374512 721.153259,477.870087 712.272400,479.091705 
	C700.090149,480.767456 687.882935,482.519592 675.863037,485.071075 
	C635.983032,493.536346 598.802917,508.694794 564.656738,531.096680 
	C562.017151,532.828430 559.951111,534.384521 559.957825,538.413330 
	C560.123108,637.876282 560.086304,737.339539 560.100403,836.802795 
	C560.100525,837.850159 560.297607,838.897522 560.307129,838.992371 
	C576.334534,830.274902 592.334778,821.572205 609.007996,812.520142 
z" data-index="2" style="opacity: 1;"></path>
<path fill="#FBFBFB" opacity="1.000000" stroke="none" d="
M817.165955,666.000122 
	C817.165649,722.159241 817.166992,777.818298 817.163391,833.477417 
	C817.162842,842.097046 815.644592,843.261292 807.189819,842.410217 
	C772.625061,838.930847 738.028625,838.674255 703.395569,841.501831 
	C670.995544,844.147095 638.966553,849.084229 607.316772,856.494446 
	C603.597656,857.365173 600.523132,856.403564 599.163330,852.696533 
	C597.776123,848.914429 599.755981,846.409241 603.088562,844.610046 
	C621.728516,834.546265 641.378418,826.986267 661.656433,821.016113 
	C694.541504,811.334167 728.103760,805.876038 762.405762,805.147949 
	C763.387207,805.127075 764.366638,805.009094 765.780884,804.904297 
	C765.780884,802.818970 765.780823,800.870544 765.780823,798.922119 
	C765.780457,715.766785 765.779114,632.611389 765.781311,549.456055 
	C765.781494,541.298828 766.669495,540.055237 774.865845,539.904663 
	C786.006042,539.700134 797.161926,539.833801 808.299683,540.184265 
	C815.954468,540.425232 817.161438,541.970886 817.162659,549.515930 
	C817.168884,588.177307 817.165833,626.838684 817.165955,666.000122 
M778.005371,634.500000 
	C778.005371,692.631165 778.008362,750.762390 778.001404,808.893555 
	C778.000549,815.789917 776.316162,817.546997 769.538696,817.504700 
	C748.507263,817.373413 727.635559,819.119080 706.997681,823.152039 
	C694.777283,825.540100 682.648682,828.397949 670.478882,831.044495 
	C670.542786,831.510010 670.606750,831.975586 670.670715,832.441101 
	C715.252747,826.885254 759.898499,825.347290 804.873535,830.041138 
	C804.873535,737.361450 804.873535,645.001831 804.873535,552.242737 
	C795.932983,552.242737 787.196655,552.242737 778.005371,552.242737 
	C778.005371,579.293396 778.005371,606.396729 778.005371,634.500000 
z" data-index="3" style="visibility: visible; opacity: 1;"></path>
<path fill="#FBFBFB" opacity="1.000000" stroke="none" d="
M264.804718,703.999878 
	C264.805023,652.170349 264.803925,600.840820 264.807190,549.511292 
	C264.807678,541.889648 265.917450,540.431763 273.618378,540.186829 
	C284.756775,539.832703 295.913177,539.706665 307.054626,539.901306 
	C315.014740,540.040344 316.185333,541.570557 316.185760,549.495239 
	C316.190338,632.655701 316.188171,715.816223 316.187866,798.976685 
	C316.187866,800.789429 316.187866,802.602112 316.187866,804.770935 
	C322.304657,805.177185 328.210144,805.589600 334.118286,805.958618 
	C384.490204,809.104187 432.592590,820.787964 477.613037,844.076538 
	C478.203247,844.381836 478.817932,844.647644 479.380432,844.997437 
	C482.399475,846.875000 484.028839,849.458374 482.522400,852.971802 
	C481.060272,856.382080 478.137360,857.268860 474.652161,856.563721 
	C461.453278,853.893433 448.313965,850.878113 435.048126,848.598389 
	C388.911469,840.670105 342.467438,837.662170 295.699921,840.747070 
	C288.224518,841.240234 280.754456,841.874390 273.302185,842.640320 
	C266.977020,843.290344 264.817963,841.516785 264.815338,834.990479 
	C264.797791,791.493652 264.805328,747.996765 264.804718,703.999878 
M303.974060,778.500000 
	C303.974060,703.084351 303.974060,627.668701 303.974060,552.224854 
	C294.821991,552.224854 286.087891,552.224854 277.108459,552.224854 
	C277.108459,644.963440 277.108459,737.320374 277.108459,830.024292 
	C321.841766,825.399658 366.270569,826.840393 410.706970,831.883911 
	C409.436737,830.921509 408.117584,830.371948 406.747803,830.019287 
	C375.693817,822.023193 344.247498,817.014832 312.065582,817.490906 
	C305.875397,817.582458 304.006317,815.614014 303.984497,809.483459 
	C303.948944,799.489136 303.974365,789.494507 303.974060,778.500000 
z" data-index="4" style="visibility: visible; opacity: 1;"></path>
<path fill="#FCFCFC" opacity="1.000000" stroke="none" d="
M881.736877,310.259827 
	C882.572693,328.109497 884.662903,345.727448 890.942505,362.632294 
	C898.604736,383.258911 913.224792,396.350952 933.950928,403.158722 
	C950.738708,408.672943 968.123718,410.068176 985.678772,412.174561 
	C982.727295,412.424957 979.750671,412.509766 976.828735,412.954346 
	C964.189209,414.877350 951.374451,416.103027 938.974731,419.057129 
	C910.419006,425.860321 893.444275,444.647430 887.107117,472.939270 
	C884.643005,483.940094 883.560059,495.251770 881.894470,506.428772 
	C881.538391,508.818665 881.383728,511.238586 880.525574,513.594543 
	C879.359924,504.016724 878.880798,494.290070 876.845642,484.900665 
	C874.572205,474.412018 871.909912,463.777130 867.593079,454.012115 
	C859.731201,436.227753 845.184265,425.047333 826.636230,420.246307 
	C813.029968,416.724457 798.889832,415.250763 784.972107,412.958282 
	C782.124268,412.489166 779.207458,412.438477 776.386841,411.599518 
	C786.816101,410.394592 797.289673,409.482422 807.664124,407.914886 
	C822.587036,405.660065 836.828735,401.321716 849.194275,392.186920 
	C863.648987,381.508728 871.140991,366.418701 874.697021,349.466156 
	C877.350952,336.814087 878.347229,323.814331 880.354187,310.415680 
	C880.996765,309.994568 881.366821,310.127197 881.736877,310.259827 
z" data-index="5" style="visibility: visible;"></path>
<path fill="#FCFCFC" opacity="1.000000" stroke="none" d="
M95.579933,411.623901 
	C111.571831,408.938965 127.924751,407.758331 143.713470,404.125549 
	C171.960205,397.626373 188.475754,378.558624 194.803635,350.762817 
	C197.377945,339.454895 198.425064,327.796722 200.098328,316.287933 
	C200.520996,313.380859 200.679733,310.435394 201.396484,307.538239 
	C202.603165,317.909546 203.235809,328.390350 205.186615,338.619751 
	C206.948563,347.858856 209.507843,357.068237 212.854492,365.857056 
	C219.649551,383.701874 232.982834,395.199402 250.640366,401.862946 
	C266.866516,407.986298 283.907379,409.693451 301.024445,410.922974 
	C302.555695,411.032959 304.086639,411.147034 305.623383,412.155640 
	C298.940338,412.762390 292.162476,412.861267 285.595062,414.087341 
	C273.870544,416.276215 261.955444,418.188843 250.688568,421.929382 
	C227.220139,429.720764 213.750412,447.270355 208.125214,470.724640 
	C205.228821,482.801178 204.035385,495.286407 202.080902,507.588257 
	C201.905228,508.693848 201.791870,509.809326 200.460266,511.040436 
	C200.319229,509.819336 200.132553,508.601532 200.044037,507.376648 
	C198.889572,491.401733 196.700775,475.641541 191.016937,460.525055 
	C183.193954,439.719360 168.417786,426.043488 147.265320,420.299500 
	C133.876694,416.663788 119.873764,415.268738 106.125801,412.992889 
	C102.686844,412.423615 99.168556,412.333557 95.579933,411.623901 
z" data-index="6" style="visibility: visible;"></path>
<path fill="#FCFCFC" opacity="1.000000" stroke="none" d="
M493.961914,279.115540 
	C519.080200,268.803589 531.013794,248.797699 535.868652,223.789383 
	C538.203308,211.763382 539.390503,199.514618 541.523926,187.111984 
	C541.687683,188.679153 541.899109,190.243027 542.007751,191.813995 
	C543.169800,208.616577 545.193787,225.266006 551.201172,241.155136 
	C558.816284,261.296692 573.114502,274.340088 593.450684,281.177399 
	C607.785828,285.997040 622.608765,287.693420 637.536865,288.943848 
	C641.452454,289.271881 645.380676,289.449249 648.767700,289.662170 
	C641.115662,290.412994 632.942871,291.157288 624.783569,292.028320 
	C610.662659,293.535675 596.806152,296.293823 583.893066,302.405731 
	C563.375793,312.116791 552.185059,329.291748 547.323242,350.711945 
	C544.719788,362.182251 543.707642,374.012878 541.950317,385.676819 
	C541.590088,388.067657 541.109680,390.440369 540.508484,392.801422 
	C539.279663,374.573334 537.441101,356.517059 531.066528,339.221893 
	C523.180786,317.826721 507.986206,304.498810 486.394348,297.885345 
	C471.962006,293.464844 457.204498,291.449860 442.179901,290.932709 
	C440.880676,290.888000 439.597046,290.390320 438.379669,289.708801 
	C457.229401,288.087616 475.911835,286.374573 493.961914,279.115540 
z" data-index="7" style="visibility: visible;"></path>
<path fill="#5F5F5F" opacity="1.000000" stroke="none" d="
M881.890747,309.798889 
	C881.366821,310.127197 880.996765,309.994568 880.350952,309.973328 
	C880.075195,302.982483 880.075195,295.880280 880.075195,288.778046 
	C880.245117,288.772430 880.415100,288.766785 880.585022,288.761169 
	C881.071533,295.620087 881.558044,302.479034 881.890747,309.798889 
z" data-index="8"></path>

<path fill="#010101" opacity="1.000000" stroke="none" d="
M608.671509,812.694824 
	C592.334778,821.572205 576.334534,830.274902 560.307129,838.992371 
	C560.297607,838.897522 560.100525,837.850159 560.100403,836.802795 
	C560.086304,737.339539 560.123108,637.876282 559.957825,538.413330 
	C559.951111,534.384521 562.017151,532.828430 564.656738,531.096680 
	C598.802917,508.694794 635.983032,493.536346 675.863037,485.071075 
	C687.882935,482.519592 700.090149,480.767456 712.272400,479.091705 
	C721.153259,477.870087 730.133911,477.374512 739.437012,476.521606 
	C739.437012,577.996277 739.437012,678.867126 739.437012,780.116821 
	C694.293701,784.204102 650.458618,793.621033 608.671509,812.694824 
z" data-index="10" style="opacity: 1; visibility: hidden;"></path>

<path fill="#010101" opacity="1.000000" stroke="none" d="
M303.974060,779.000000 
	C303.974365,789.494507 303.948944,799.489136 303.984497,809.483459 
	C304.006317,815.614014 305.875397,817.582458 312.065582,817.490906 
	C344.247498,817.014832 375.693817,822.023193 406.747803,830.019287 
	C408.117584,830.371948 409.436737,830.921509 410.706970,831.883911 
	C366.270569,826.840393 321.841766,825.399658 277.108459,830.024292 
	C277.108459,737.320374 277.108459,644.963440 277.108459,552.224854 
	C286.087891,552.224854 294.821991,552.224854 303.974060,552.224854 
	C303.974060,627.668701 303.974060,703.084351 303.974060,779.000000 
z" data-index="12" style="visibility: hidden; opacity: 1; stroke-width: 2px; stroke: rgb(13, 153, 255);"></path>
</svg>