<svg version="1.1" id="Layer_1" xmlns="http://www.w3.org/2000/svg" xmlns:xlink="http://www.w3.org/1999/xlink" x="0px" y="0px" width="100%" viewBox="0 0 1080 1080" enable-background="new 0 0 1080 1080" xml:space="preserve">
<path fill="#000000" opacity="1.000000" stroke="none" d="
M1.000000,993.000000 
	C1.000000,691.970642 1.000000,390.941284 1.355068,89.276398 
	C7.365051,46.702148 36.305748,14.367564 77.599548,3.925567 
	C82.029686,2.805315 86.531456,1.968367 91.000000,0.999999 
	C390.696045,1.000000 690.392090,1.000000 990.726074,1.364108 
	C1032.326050,5.179427 1068.054688,36.084427 1077.990234,76.692192 
	C1079.071045,81.109154 1080.000366,85.563171 1081.000000,90.000000 
	C1081.000000,390.696045 1081.000000,691.392090 1080.645996,992.721985 
	C1074.427246,1037.062744 1043.049194,1070.361938 999.422302,1079.206909 
	C996.929504,1079.712280 994.473267,1080.398193 992.000000,1081.000000 
	C691.303955,1081.000000 390.607941,1081.000000 89.240852,1080.671021 
	C45.731544,1073.001709 17.452311,1048.905273 4.553349,1007.204407 
	C3.113223,1002.548706 2.172399,997.738525 1.000000,993.000000 
M882.044434,309.338257 
	C881.558105,302.478149 881.071777,295.618073 880.585449,288.757965 
	C880.415405,288.763519 880.245300,288.769104 880.075195,288.774658 
	C880.075195,295.878113 880.075195,302.981598 880.081665,310.969696 
	C878.347168,323.814453 877.350830,336.814026 874.697021,349.465942 
	C871.141174,366.418427 863.649963,381.509247 849.194580,392.186218 
	C836.829163,401.319489 822.588928,405.662262 807.665161,407.915100 
	C797.289856,409.481354 786.815918,410.394318 776.386047,411.599152 
	C779.206055,412.438446 782.122681,412.489166 784.970459,412.958252 
	C798.888062,415.250610 813.009399,416.780731 826.636108,420.243469 
	C843.146301,424.438934 856.349854,434.132660 865.146606,449.123962 
	C871.636719,460.184418 875.062744,472.315826 876.972107,484.868622 
	C878.422119,494.401398 879.359192,504.012207 880.524536,513.588257 
	C881.388428,511.231964 881.539246,508.814667 881.894836,506.427826 
	C883.559814,495.250793 884.642639,483.939148 887.107056,472.938507 
	C893.444946,444.647339 910.419067,425.859650 938.975220,419.057007 
	C951.374817,416.103149 964.189453,414.877594 976.828796,412.953979 
	C979.752319,412.509064 982.729980,412.420044 985.682678,412.167267 
	C968.125061,410.060120 950.738831,408.675476 933.950134,403.159088 
	C913.224976,396.349243 898.604553,383.258636 890.942383,362.632294 
	C884.662720,345.727631 882.572693,328.109802 882.044434,309.338257 
M534.070374,836.499207 
	C534.070374,736.181030 534.029236,635.862793 534.182190,535.544861 
	C534.190552,530.063538 532.375427,526.680420 527.946045,523.613708 
	C503.028107,506.361755 476.049500,493.419281 447.339600,483.857330 
	C412.374969,472.212189 376.495850,465.826538 339.701721,464.312439 
	C332.025391,463.996582 329.998688,465.765045 329.998108,473.696075 
	C329.994995,518.355957 329.996582,563.015869 329.996582,607.675781 
	C329.996582,666.166931 329.994873,724.658020 329.998871,783.149170 
	C329.999359,790.209412 331.416718,791.349182 338.152313,792.190125 
	C356.142914,794.436462 374.298187,796.012695 392.017609,799.656494 
	C439.747162,809.471497 484.376648,826.790710 523.234436,857.145691 
	C525.003784,858.528015 528.603271,859.288025 530.417419,858.410034 
	C532.241699,857.527161 533.652466,854.316772 533.910583,851.979065 
	C534.437683,847.204590 534.069580,842.331238 534.070374,836.499207 
M751.860962,469.284668 
	C750.538696,465.024872 747.484314,464.051819 743.328735,464.224945 
	C704.703491,465.834076 666.997253,472.367340 630.431824,485.069580 
	C602.987366,494.603333 577.128662,507.289978 553.301086,524.011292 
	C549.817383,526.455994 547.812317,529.184692 547.817383,533.829529 
	C547.931702,639.453186 547.914185,745.077026 547.866028,850.700806 
	C547.864441,854.091736 548.202393,857.738098 551.626587,858.534546 
	C554.041870,859.096313 557.388733,857.857666 559.672729,856.405396 
	C570.739929,849.368896 581.163452,841.225037 592.588806,834.863220 
	C639.748352,808.604309 690.902100,796.072632 744.402161,792.095825 
	C750.230652,791.662659 751.991089,789.942200 751.991150,784.020203 
	C751.991943,679.396301 751.971375,574.772339 751.860962,469.284668 
M739.495850,839.597595 
	C762.447998,840.584473 785.407043,841.440857 808.348145,842.639404 
	C815.052307,842.989685 817.156677,841.606689 817.157410,834.804321 
	C817.168274,739.489136 817.167542,644.173950 817.159668,548.858765 
	C817.159119,542.171326 815.889954,540.488953 809.140564,540.251343 
	C797.838806,539.853577 786.515320,539.669800 775.210693,539.892639 
	C766.453796,540.065247 765.781982,541.138489 765.781921,550.110474 
	C765.781006,633.094666 765.781860,716.078857 765.782227,799.063049 
	C765.782227,801.003479 765.782288,802.943848 765.782288,805.015991 
	C733.590759,805.535461 702.541504,810.022461 672.022400,818.081238 
	C648.190613,824.374268 625.150879,832.800537 603.352844,844.436951 
	C599.879150,846.291321 597.604370,848.872131 599.226929,852.864380 
	C600.797974,856.729980 604.044861,857.292419 607.974426,856.320374 
	C614.588379,854.684326 621.267517,853.288818 627.956604,851.983765 
	C664.465332,844.860840 701.278687,840.433716 739.495850,839.597595 
M418.403107,845.962585 
	C425.791565,847.147827 433.213440,848.157776 440.560669,849.559143 
	C451.823914,851.707458 462.996887,854.358154 474.300507,856.241638 
	C476.701508,856.641724 480.242523,855.331604 481.853973,853.543579 
	C482.938171,852.340637 481.902588,848.790894 481.122345,846.530090 
	C480.739166,845.419800 478.840851,844.737244 477.526764,844.057068 
	C432.530060,820.766113 384.442841,809.096680 334.090271,805.956787 
	C328.186584,805.588623 322.286163,805.168213 316.187805,804.758789 
	C316.187805,802.584412 316.187805,800.770996 316.187805,798.957581 
	C316.188110,715.662537 316.191254,632.367493 316.183655,549.072449 
	C316.182983,541.810181 314.759460,540.026733 307.636047,539.927307 
	C296.330902,539.769409 285.013947,539.836609 273.713348,540.181030 
	C265.852173,540.420776 264.806641,541.853943 264.806549,549.910217 
	C264.805664,635.204346 264.806244,720.498474 264.806854,805.792603 
	C264.806915,815.954590 264.752197,826.117004 264.835938,836.278320 
	C264.875641,841.094299 267.322998,843.174500 272.093475,842.766235 
	C280.219543,842.070862 288.334412,841.202881 296.471771,840.688049 
	C337.000671,838.124023 377.346985,840.020203 418.403107,845.962585 
M204.768600,336.602936 
	C203.653641,326.919891 202.538696,317.236816 201.479996,308.042267 
	C199.688599,320.581757 198.402512,333.650818 195.851700,346.468140 
	C192.198456,364.825287 184.710083,381.315521 168.883163,392.712219 
	C156.573456,401.576263 142.462662,405.817657 127.692085,407.959503 
	C117.040710,409.504028 106.302322,410.448486 95.602753,411.660614 
	C99.166290,412.424011 102.761147,412.676544 106.353111,412.965240 
	C121.134102,414.153351 135.776260,416.007080 149.892273,420.936615 
	C169.400070,427.749054 183.818085,440.239441 190.533661,459.862091 
	C194.535614,471.555542 196.438110,483.990936 198.935257,496.164429 
	C199.927139,500.999878 199.974854,506.028992 200.452423,510.969940 
	C201.736008,509.761261 201.897964,508.566986 202.088303,507.377289 
	C204.055969,495.078003 205.236420,482.587585 208.161469,470.520111 
	C214.558289,444.129578 230.901764,426.386047 257.462646,419.606964 
	C270.278259,416.336060 283.607178,415.061127 296.718597,412.976196 
	C299.689545,412.503815 302.722443,412.420837 305.726807,412.158600 
	C304.026031,411.100891 302.424377,411.028625 300.825989,410.911285 
	C283.881439,409.667816 267.022217,407.961456 250.926575,401.963715 
	C234.663834,395.903717 221.553207,385.825806 214.648407,369.752747 
	C210.239380,359.489349 208.068970,348.264221 204.768600,336.602936 
M519.185791,318.363708 
	C536.620911,340.263153 538.308350,366.616058 540.482727,393.324158 
	C541.015503,390.761414 541.601379,388.579803 541.908142,386.359619 
	C543.319153,376.148651 544.184631,365.838287 546.100403,355.725464 
	C552.004456,324.558350 569.531067,303.656219 601.097656,296.395416 
	C612.560547,293.758759 624.385681,292.680145 636.059509,290.986328 
	C640.510681,290.340515 645.000854,289.962982 647.998779,289.627960 
	C645.239380,289.455811 640.981567,289.279205 636.740540,288.909668 
	C620.981934,287.536591 605.319702,285.716156 590.356384,280.059875 
	C572.275085,273.224945 559.343079,261.145386 552.026245,243.172668 
	C546.770996,230.263824 544.355835,216.716858 542.978882,202.938950 
	C542.453857,197.685211 542.000488,192.424301 541.514404,187.166656 
	C540.336731,187.976135 540.192383,188.727615 540.101074,189.485504 
	C538.709167,201.034668 537.987488,212.711395 535.809814,224.110077 
	C529.914856,254.965836 512.734314,276.071808 481.203156,283.151825 
	C467.188477,286.298645 452.845306,287.982361 438.999786,290.272522 
	C439.489319,290.394684 440.608521,290.815308 441.759644,290.939087 
	C451.678070,292.005707 461.705231,292.437714 471.502319,294.174133 
	C489.478149,297.360138 506.138947,303.651276 519.185791,318.363708 
z" data-index="0" style="visibility: visible; opacity: 1;"></path>

<path fill="#FDFDFD" opacity="1.000000" stroke="none" d="
M992.468628,1081.000000 
	C994.473267,1080.398193 996.929504,1079.712280 999.422302,1079.206909 
	C1043.049194,1070.361938 1074.427246,1037.062744 1080.645996,993.177917 
	C1081.000000,1022.260681 1081.000000,1051.521362 1081.000000,1081.000000 
	C1051.646118,1081.000000 1022.291748,1081.000000 992.468628,1081.000000 
z" data-index="2" style="visibility: hidden; opacity: 1; stroke-width: 2px; stroke: rgb(13, 153, 255);"></path>

<path fill="#FDFDFD" opacity="1.000000" stroke="none" d="
M1.000000,993.468628 
	C2.172399,997.738525 3.113223,1002.548706 4.553349,1007.204407 
	C17.452311,1048.905273 45.731544,1073.001709 88.784897,1080.671021 
	C59.739758,1081.000000 30.479517,1081.000000 1.000000,1081.000000 
	C1.000000,1051.979492 1.000000,1022.958374 1.000000,993.468628 
z" data-index="4" style="visibility: hidden; opacity: 1; stroke-width: 2px; stroke: rgb(13, 153, 255);"></path>
<path fill="#FDFDFD" opacity="1.000000" stroke="none" d="
M534.070312,836.998901 
	C534.069580,842.331238 534.437683,847.204590 533.910583,851.979065 
	C533.652466,854.316772 532.241699,857.527161 530.417419,858.410034 
	C528.603271,859.288025 525.003784,858.528015 523.234436,857.145691 
	C484.376648,826.790710 439.747162,809.471497 392.017609,799.656494 
	C374.298187,796.012695 356.142914,794.436462 338.152313,792.190125 
	C331.416718,791.349182 329.999359,790.209412 329.998871,783.149170 
	C329.994873,724.658020 329.996582,666.166931 329.996582,607.675781 
	C329.996582,563.015869 329.994995,518.355957 329.998108,473.696075 
	C329.998688,465.765045 332.025391,463.996582 339.701721,464.312439 
	C376.495850,465.826538 412.374969,472.212189 447.339600,483.857330 
	C476.049500,493.419281 503.028107,506.361755 527.946045,523.613708 
	C532.375427,526.680420 534.190552,530.063538 534.182190,535.544861 
	C534.029236,635.862793 534.070374,736.181030 534.070312,836.998901 
M450.334198,803.178650 
	C475.570587,812.501831 499.293060,824.793274 521.887634,840.716309 
	C521.887634,838.609619 521.887634,837.623901 521.887634,836.638184 
	C521.887573,737.349182 521.887512,638.060120 521.887451,538.771118 
	C521.887451,538.271362 522.052307,537.692505 521.857666,537.285889 
	C521.137878,535.782288 520.671692,533.772400 519.443848,532.960266 
	C512.243774,528.198303 505.041779,523.384521 497.498779,519.204773 
	C460.763855,498.849304 421.381592,486.280090 379.906403,480.270416 
	C367.606476,478.488190 355.165344,477.680634 342.458435,476.393005 
	C342.458435,578.124329 342.458435,678.993530 342.458435,780.137634 
	C379.201965,783.424927 415.014587,790.316162 450.334198,803.178650 
z" data-index="5" style="visibility: visible;"></path>
<path fill="#FDFDFD" opacity="1.000000" stroke="none" d="
M751.908203,469.716553 
	C751.971375,574.772339 751.991943,679.396301 751.991150,784.020203 
	C751.991089,789.942200 750.230652,791.662659 744.402161,792.095825 
	C690.902100,796.072632 639.748352,808.604309 592.588806,834.863220 
	C581.163452,841.225037 570.739929,849.368896 559.672729,856.405396 
	C557.388733,857.857666 554.041870,859.096313 551.626587,858.534546 
	C548.202393,857.738098 547.864441,854.091736 547.866028,850.700806 
	C547.914185,745.077026 547.931702,639.453186 547.817383,533.829529 
	C547.812317,529.184692 549.817383,526.455994 553.301086,524.011292 
	C577.128662,507.289978 602.987366,494.603333 630.431824,485.069580 
	C666.997253,472.367340 704.703491,465.834076 743.328735,464.224945 
	C747.484314,464.051819 750.538696,465.024872 751.908203,469.716553 
M723.318909,781.925354 
	C728.718323,781.280029 734.117737,780.634766 739.499146,779.991638 
	C739.499146,678.792419 739.499146,578.027710 739.499146,477.259979 
	C735.941956,477.259979 732.599792,476.920807 729.347656,477.318268 
	C714.649597,479.114532 699.862000,480.493408 685.316772,483.166138 
	C641.840698,491.154999 601.370667,506.954529 564.327759,531.275818 
	C561.495605,533.135254 559.982483,535.036377 559.987244,538.791199 
	C560.113281,637.789856 560.086121,736.788696 560.098755,835.787537 
	C560.098938,837.168579 560.271484,838.549622 560.406494,840.574219 
	C584.628296,823.189270 610.446106,810.441895 637.901001,800.974731 
	C665.360535,791.505859 693.567444,785.303467 723.318909,781.925354 
z" data-index="6" style="opacity: 1;"></path>
<path fill="#FBFBFB" opacity="1.000000" stroke="none" d="
M738.996948,839.634521 
	C701.278687,840.433716 664.465332,844.860840 627.956604,851.983765 
	C621.267517,853.288818 614.588379,854.684326 607.974426,856.320374 
	C604.044861,857.292419 600.797974,856.729980 599.226929,852.864380 
	C597.604370,848.872131 599.879150,846.291321 603.352844,844.436951 
	C625.150879,832.800537 648.190613,824.374268 672.022400,818.081238 
	C702.541504,810.022461 733.590759,805.535461 765.782288,805.015991 
	C765.782288,802.943848 765.782227,801.003479 765.782227,799.063049 
	C765.781860,716.078857 765.781006,633.094666 765.781921,550.110474 
	C765.781982,541.138489 766.453796,540.065247 775.210693,539.892639 
	C786.515320,539.669800 797.838806,539.853577 809.140564,540.251343 
	C815.889954,540.488953 817.159119,542.171326 817.159668,548.858765 
	C817.167542,644.173950 817.168274,739.489136 817.157410,834.804321 
	C817.156677,841.606689 815.052307,842.989685 808.348145,842.639404 
	C785.407043,841.440857 762.447998,840.584473 738.996948,839.634521 
M805.109070,607.500000 
	C805.109070,589.217712 805.109070,570.935425 805.109070,552.249878 
	C795.949829,552.249878 787.212280,552.249878 778.005371,552.249878 
	C778.005371,553.953308 778.005310,555.738464 778.005310,557.523621 
	C778.005310,641.305847 778.007385,725.088074 778.001587,808.870300 
	C778.001099,815.794006 776.307129,817.120667 769.566528,817.585693 
	C750.831421,818.878296 732.029724,819.806763 713.425842,822.207825 
	C698.962891,824.074402 684.757568,827.937012 670.437744,830.912476 
	C670.507690,831.421875 670.577637,831.931274 670.647583,832.440735 
	C715.233948,826.892151 759.882996,825.345520 805.109070,830.065369 
	C805.109070,755.994629 805.109070,682.247314 805.109070,607.500000 
z" data-index="7" style="opacity: 1;"></path>
<path fill="#FBFBFB" opacity="1.000000" stroke="none" d="
M417.961060,845.921204 
	C377.346985,840.020203 337.000671,838.124023 296.471771,840.688049 
	C288.334412,841.202881 280.219543,842.070862 272.093475,842.766235 
	C267.322998,843.174500 264.875641,841.094299 264.835938,836.278320 
	C264.752197,826.117004 264.806915,815.954590 264.806854,805.792603 
	C264.806244,720.498474 264.805664,635.204346 264.806549,549.910217 
	C264.806641,541.853943 265.852173,540.420776 273.713348,540.181030 
	C285.013947,539.836609 296.330902,539.769409 307.636047,539.927307 
	C314.759460,540.026733 316.182983,541.810181 316.183655,549.072449 
	C316.191254,632.367493 316.188110,715.662537 316.187805,798.957581 
	C316.187805,800.770996 316.187805,802.584412 316.187805,804.758789 
	C322.286163,805.168213 328.186584,805.588623 334.090271,805.956787 
	C384.442841,809.096680 432.530060,820.766113 477.526764,844.057068 
	C478.840851,844.737244 480.739166,845.419800 481.122345,846.530090 
	C481.902588,848.790894 482.938171,852.340637 481.853973,853.543579 
	C480.242523,855.331604 476.701508,856.641724 474.300507,856.241638 
	C462.996887,854.358154 451.823914,851.707458 440.560669,849.559143 
	C433.213440,848.157776 425.791565,847.147827 417.961060,845.921204 
M391.205444,826.142212 
	C365.563507,820.857971 339.761475,817.060242 313.477203,817.494446 
	C305.347626,817.628723 303.976715,816.126465 303.976501,807.893433 
	C303.974152,724.422485 303.974487,640.951477 303.974060,557.480530 
	C303.974060,555.699280 303.974060,553.918030 303.974060,552.270813 
	C294.722107,552.270813 285.978973,552.270813 277.149078,552.270813 
	C277.149078,645.081055 277.149078,737.463440 277.149078,830.037476 
	C321.873505,825.369324 366.231903,826.887512 411.607452,832.473022 
	C410.325256,831.335754 410.128815,831.018799 409.867584,830.950745 
	C403.920868,829.402466 397.967010,827.881409 391.205444,826.142212 
z" data-index="8" style="visibility: visible;"></path>
<path fill="#FCFCFC" opacity="1.000000" stroke="none" d="
M204.831726,337.036621 
	C208.068970,348.264221 210.239380,359.489349 214.648407,369.752747 
	C221.553207,385.825806 234.663834,395.903717 250.926575,401.963715 
	C267.022217,407.961456 283.881439,409.667816 300.825989,410.911285 
	C302.424377,411.028625 304.026031,411.100891 305.726807,412.158600 
	C302.722443,412.420837 299.689545,412.503815 296.718597,412.976196 
	C283.607178,415.061127 270.278259,416.336060 257.462646,419.606964 
	C230.901764,426.386047 214.558289,444.129578 208.161469,470.520111 
	C205.236420,482.587585 204.055969,495.078003 202.088303,507.377289 
	C201.897964,508.566986 201.736008,509.761261 200.452423,510.969940 
	C199.974854,506.028992 199.927139,500.999878 198.935257,496.164429 
	C196.438110,483.990936 194.535614,471.555542 190.533661,459.862091 
	C183.818085,440.239441 169.400070,427.749054 149.892273,420.936615 
	C135.776260,416.007080 121.134102,414.153351 106.353111,412.965240 
	C102.761147,412.676544 99.166290,412.424011 95.602753,411.660614 
	C106.302322,410.448486 117.040710,409.504028 127.692085,407.959503 
	C142.462662,405.817657 156.573456,401.576263 168.883163,392.712219 
	C184.710083,381.315521 192.198456,364.825287 195.851700,346.468140 
	C198.402512,333.650818 199.688599,320.581757 201.479996,308.042267 
	C202.538696,317.236816 203.653641,326.919891 204.831726,337.036621 
z" data-index="9" style="visibility: visible;"></path>
<path fill="#FCFCFC" opacity="1.000000" stroke="none" d="
M881.736877,310.260284 
	C882.572693,328.109802 884.662720,345.727631 890.942383,362.632294 
	C898.604553,383.258636 913.224976,396.349243 933.950134,403.159088 
	C950.738831,408.675476 968.125061,410.060120 985.682678,412.167267 
	C982.729980,412.420044 979.752319,412.509064 976.828796,412.953979 
	C964.189453,414.877594 951.374817,416.103149 938.975220,419.057007 
	C910.419067,425.859650 893.444946,444.647339 887.107056,472.938507 
	C884.642639,483.939148 883.559814,495.250793 881.894836,506.427826 
	C881.539246,508.814667 881.388428,511.231964 880.524536,513.588257 
	C879.359192,504.012207 878.422119,494.401398 876.972107,484.868622 
	C875.062744,472.315826 871.636719,460.184418 865.146606,449.123962 
	C856.349854,434.132660 843.146301,424.438934 826.636108,420.243469 
	C813.009399,416.780731 798.888062,415.250610 784.970459,412.958252 
	C782.122681,412.489166 779.206055,412.438446 776.386047,411.599152 
	C786.815918,410.394318 797.289856,409.481354 807.665161,407.915100 
	C822.588928,405.662262 836.829163,401.319489 849.194580,392.186218 
	C863.649963,381.509247 871.141174,366.418427 874.697021,349.465942 
	C877.350830,336.814026 878.347168,323.814453 880.354126,310.415894 
	C880.996704,309.994812 881.366821,310.127533 881.736877,310.260284 
z" data-index="10" style="visibility: visible;"></path>
<path fill="#FCFCFC" opacity="1.000000" stroke="none" d="
M518.961609,318.086334 
	C506.138947,303.651276 489.478149,297.360138 471.502319,294.174133 
	C461.705231,292.437714 451.678070,292.005707 441.759644,290.939087 
	C440.608521,290.815308 439.489319,290.394684 438.999786,290.272522 
	C452.845306,287.982361 467.188477,286.298645 481.203156,283.151825 
	C512.734314,276.071808 529.914856,254.965836 535.809814,224.110077 
	C537.987488,212.711395 538.709167,201.034668 540.101074,189.485504 
	C540.192383,188.727615 540.336731,187.976135 541.514404,187.166656 
	C542.000488,192.424301 542.453857,197.685211 542.978882,202.938950 
	C544.355835,216.716858 546.770996,230.263824 552.026245,243.172668 
	C559.343079,261.145386 572.275085,273.224945 590.356384,280.059875 
	C605.319702,285.716156 620.981934,287.536591 636.740540,288.909668 
	C640.981567,289.279205 645.239380,289.455811 647.998779,289.627960 
	C645.000854,289.962982 640.510681,290.340515 636.059509,290.986328 
	C624.385681,292.680145 612.560547,293.758759 601.097656,296.395416 
	C569.531067,303.656219 552.004456,324.558350 546.100403,355.725464 
	C544.184631,365.838287 543.319153,376.148651 541.908142,386.359619 
	C541.601379,388.579803 541.015503,390.761414 540.482727,393.324158 
	C538.308350,366.616058 536.620911,340.263153 518.961609,318.086334 
z" data-index="11" style="visibility: visible;"></path>
<path fill="#5F5F5F" opacity="1.000000" stroke="none" d="
M881.890625,309.799255 
	C881.366821,310.127533 880.996704,309.994812 880.350952,309.973572 
	C880.075195,302.981598 880.075195,295.878113 880.075195,288.774658 
	C880.245300,288.769104 880.415405,288.763519 880.585449,288.757965 
	C881.071777,295.618073 881.558105,302.478149 881.890625,309.799255 
z" data-index="12"></path>
<path fill="#010101" opacity="1.000000" stroke="none" d="
M449.957550,803.075867 
	C415.014587,790.316162 379.201965,783.424927 342.458435,780.137634 
	C342.458435,678.993530 342.458435,578.124329 342.458435,476.393005 
	C355.165344,477.680634 367.606476,478.488190 379.906403,480.270416 
	C421.381592,486.280090 460.763855,498.849304 497.498779,519.204773 
	C505.041779,523.384521 512.243774,528.198303 519.443848,532.960266 
	C520.671692,533.772400 521.137878,535.782288 521.857666,537.285889 
	C522.052307,537.692505 521.887451,538.271362 521.887451,538.771118 
	C521.887512,638.060120 521.887573,737.349182 521.887634,836.638184 
	C521.887634,837.623901 521.887634,838.609619 521.887634,840.716309 
	C499.293060,824.793274 475.570587,812.501831 449.957550,803.075867 
z" data-index="13" style="visibility: visible;"></path>
<path fill="#010101" opacity="1.000000" stroke="none" d="
M722.868408,781.961792 
	C693.567444,785.303467 665.360535,791.505859 637.901001,800.974731 
	C610.446106,810.441895 584.628296,823.189270 560.406494,840.574219 
	C560.271484,838.549622 560.098938,837.168579 560.098755,835.787537 
	C560.086121,736.788696 560.113281,637.789856 559.987244,538.791199 
	C559.982483,535.036377 561.495605,533.135254 564.327759,531.275818 
	C601.370667,506.954529 641.840698,491.154999 685.316772,483.166138 
	C699.862000,480.493408 714.649597,479.114532 729.347656,477.318268 
	C732.599792,476.920807 735.941956,477.259979 739.499146,477.259979 
	C739.499146,578.027710 739.499146,678.792419 739.499146,779.991638 
	C734.117737,780.634766 728.718323,781.280029 722.868408,781.961792 
z" data-index="14" style="opacity: 1;"></path>
<path fill="#010101" opacity="1.000000" stroke="none" d="
M805.109070,608.000000 
	C805.109070,682.247314 805.109070,755.994629 805.109070,830.065369 
	C759.882996,825.345520 715.233948,826.892151 670.647583,832.440735 
	C670.577637,831.931274 670.507690,831.421875 670.437744,830.912476 
	C684.757568,827.937012 698.962891,824.074402 713.425842,822.207825 
	C732.029724,819.806763 750.831421,818.878296 769.566528,817.585693 
	C776.307129,817.120667 778.001099,815.794006 778.001587,808.870300 
	C778.007385,725.088074 778.005310,641.305847 778.005310,557.523621 
	C778.005310,555.738464 778.005371,553.953308 778.005371,552.249878 
	C787.212280,552.249878 795.949829,552.249878 805.109070,552.249878 
	C805.109070,570.935425 805.109070,589.217712 805.109070,608.000000 
z" data-index="15" style="visibility: visible;"></path>
<path fill="#010101" opacity="1.000000" stroke="none" d="
M391.609985,826.248779 
	C397.967010,827.881409 403.920868,829.402466 409.867584,830.950745 
	C410.128815,831.018799 410.325256,831.335754 411.607452,832.473022 
	C366.231903,826.887512 321.873505,825.369324 277.149078,830.037476 
	C277.149078,737.463440 277.149078,645.081055 277.149078,552.270813 
	C285.978973,552.270813 294.722107,552.270813 303.974060,552.270813 
	C303.974060,553.918030 303.974060,555.699280 303.974060,557.480530 
	C303.974487,640.951477 303.974152,724.422485 303.976501,807.893433 
	C303.976715,816.126465 305.347626,817.628723 313.477203,817.494446 
	C339.761475,817.060242 365.563507,820.857971 391.609985,826.248779 
z" data-index="16" style="visibility: visible;"></path>
</svg>